<mxfile host="app.diagrams.net" modified="2023-04-06T09:25:16.530Z" agent="Mozilla/5.0 (Macintosh; Intel Mac OS X 10_15_7) AppleWebKit/537.36 (KHTML, like Gecko) Chrome/111.0.0.0 Safari/537.36" version="21.1.4" etag="bz03RSKXaw-YDYPMItU3" type="github">
  <diagram name="Page-1" id="o4JvIcqZ-5xuwljtrVCn">
    <mxGraphModel>
      <root>
        <mxCell id="0" />
        <mxCell id="1" parent="0" />
      </root>
    </mxGraphModel>
  </diagram>
</mxfile>
